# xmcd
# 
# Track frame offsets:
#     150
#     14734
#     34605
#     52315
#     74237
#     86276
#     113145
#     132205
#     151800
# 
# Disc length: 2321
# 
# Revision: 0
# Processed by: cddbd v1.5.2PL0 Copyright (c) Steve Scherf et al.
# Submitted via: fre:ac v1.0.17
# 
DISCID=7a090f09
DTITLE=John Mayall - Lost and Gone
DYEAR=2001
DGENRE=Blues
TTITLE0=Why worry
TTITLE1=Road show
TTITLE2=Mama talk to your daugther
TTITLE3=A big man
TTITLE4=Lost and gone
TTITLE5=Mexico city
TTITLE6=John lee boogie
TTITLE7=Reaching for a mountain
TTITLE8=Baby what you want me to do
EXTD=Original est de 1964
EXTT0=
EXTT1=
EXTT2=
EXTT3=
EXTT4=
EXTT5=
EXTT6=
EXTT7=
EXTT8=
PLAYORDER=
